<svg width="20" height="20" viewBox="0 0 20 20" fill="none" xmlns="http://www.w3.org/2000/svg">
<path d="M7.2067 12.2593L9.99753 15.0001L12.7892 12.2593C12.9613 12.0937 13.0983 11.8951 13.1918 11.6754C13.2853 11.4557 13.3335 11.2193 13.3335 10.9805C13.3335 10.7417 13.2853 10.5054 13.1918 10.2856C13.0983 10.0659 12.9613 9.86731 12.7892 9.70177C12.4422 9.35927 11.9743 9.16724 11.4867 9.16724C10.9991 9.16724 10.5312 9.35927 10.1842 9.70177L9.99753 9.88427L9.81086 9.70177C9.464 9.35933 8.9962 9.16731 8.50878 9.16731C8.02136 9.16731 7.55356 9.35933 7.2067 9.70177C7.03457 9.86731 6.89764 10.0659 6.8041 10.2856C6.71057 10.5054 6.66235 10.7417 6.66235 10.9805C6.66235 11.2193 6.71057 11.4557 6.8041 11.6754C6.89764 11.8951 7.03457 12.0937 7.2067 12.2593Z" fill="currentColor"/>
<path d="M15.8333 3.33341H14.1667V1.66675H12.5V3.33341H7.5V1.66675H5.83333V3.33341H4.16667C3.2475 3.33341 2.5 4.08091 2.5 5.00008V16.6667C2.5 17.5859 3.2475 18.3334 4.16667 18.3334H15.8333C16.7525 18.3334 17.5 17.5859 17.5 16.6667V5.00008C17.5 4.08091 16.7525 3.33341 15.8333 3.33341ZM15.835 16.6667H4.16667V6.66675H15.8333L15.835 16.6667Z" fill="currentColor"/>
</svg>
