<svg width="28" height="28" viewBox="0 0 28 28" fill="none" xmlns="http://www.w3.org/2000/svg">
<path d="M14 10.5C12.103 10.5 10.5 12.103 10.5 14C10.5 15.897 12.103 17.5 14 17.5C15.897 17.5 17.5 15.897 17.5 14C17.5 12.103 15.897 10.5 14 10.5Z" fill="currentColor"/>
<path d="M23.3335 5.83325H20.3165L17.1583 2.67509C17.0502 2.56654 16.9216 2.48045 16.7801 2.42178C16.6385 2.36312 16.4867 2.33303 16.3335 2.33325H11.6668C11.5136 2.33303 11.3618 2.36312 11.2203 2.42178C11.0787 2.48045 10.9502 2.56654 10.842 2.67509L7.68383 5.83325H4.66683C3.38 5.83325 2.3335 6.87975 2.3335 8.16659V20.9999C2.3335 22.2868 3.38 23.3333 4.66683 23.3333H23.3335C24.6203 23.3333 25.6668 22.2868 25.6668 20.9999V8.16659C25.6668 6.87975 24.6203 5.83325 23.3335 5.83325ZM14.0002 19.8333C10.8385 19.8333 8.16683 17.1616 8.16683 13.9999C8.16683 10.8383 10.8385 8.16659 14.0002 8.16659C17.1618 8.16659 19.8335 10.8383 19.8335 13.9999C19.8335 17.1616 17.1618 19.8333 14.0002 19.8333Z" fill="currentColor"/>
</svg>
