<svg width="20" height="20" viewBox="0 0 20 20" fill="none" xmlns="http://www.w3.org/2000/svg">
<path d="M10.0001 13.3334C11.8384 13.3334 13.3334 11.8384 13.3334 10.0001C13.3334 8.16175 11.8384 6.66675 10.0001 6.66675C8.16175 6.66675 6.66675 8.16175 6.66675 10.0001C6.66675 11.8384 8.16175 13.3334 10.0001 13.3334ZM10.0001 8.33341C10.9034 8.33341 11.6667 9.09675 11.6667 10.0001C11.6667 10.9034 10.9034 11.6667 10.0001 11.6667C9.09675 11.6667 8.33341 10.9034 8.33341 10.0001C8.33341 9.09675 9.09675 8.33341 10.0001 8.33341Z" fill="currentColor"/>
<path d="M2.3709 13.4467L3.20423 14.8884C3.64673 15.6526 4.71173 15.9392 5.47923 15.4967L5.92006 15.2417C6.40218 15.621 6.93374 15.9328 7.50006 16.1684V16.6667C7.50006 17.5859 8.24756 18.3334 9.16673 18.3334H10.8334C11.7526 18.3334 12.5001 17.5859 12.5001 16.6667V16.1684C13.0662 15.9327 13.5977 15.6213 14.0801 15.2426L14.5209 15.4976C15.2901 15.9392 16.3526 15.6542 16.7967 14.8884L17.6292 13.4476C17.8501 13.0648 17.91 12.6101 17.7958 12.1832C17.6815 11.7563 17.4025 11.3922 17.0201 11.1709L16.5992 10.9276C16.6887 10.313 16.6887 9.68879 16.5992 9.07425L17.0201 8.83091C17.4024 8.60944 17.6812 8.24536 17.7954 7.81855C17.9096 7.39173 17.8499 6.93705 17.6292 6.55425L16.7967 5.11342C16.3542 4.34675 15.2901 4.05925 14.5209 4.50341L14.0801 4.75841C13.5979 4.37917 13.0664 4.06741 12.5001 3.83175V3.33341C12.5001 2.41425 11.7526 1.66675 10.8334 1.66675H9.16673C8.24756 1.66675 7.50006 2.41425 7.50006 3.33341V3.83175C6.93393 4.06745 6.40241 4.3789 5.92006 4.75758L5.47923 4.50258C4.70923 4.06008 3.6459 4.34675 3.2034 5.11258L2.3709 6.55341C2.15005 6.93616 2.09016 7.39092 2.20438 7.8178C2.31859 8.24468 2.59759 8.60876 2.98006 8.83008L3.4009 9.07341C3.31109 9.68765 3.31109 10.3117 3.4009 10.9259L2.98006 11.1692C2.5977 11.3909 2.31884 11.7551 2.20464 12.1821C2.09044 12.609 2.15023 13.0638 2.3709 13.4467ZM5.14256 11.1484C5.04847 10.7729 5.00061 10.3872 5.00006 10.0001C5.00006 9.61508 5.0484 9.22842 5.14173 8.85175C5.18568 8.67619 5.17122 8.49109 5.10055 8.32448C5.02988 8.15787 4.90684 8.01883 4.75006 7.92841L3.81423 7.38675L4.6459 5.94592L5.60006 6.49758C5.75567 6.58762 5.93628 6.62476 6.11479 6.60342C6.29329 6.58209 6.46006 6.50343 6.59006 6.37925C7.15383 5.84304 7.83367 5.44409 8.57673 5.21341C8.74742 5.1613 8.89687 5.05577 9.00308 4.91236C9.10929 4.76894 9.16666 4.59521 9.16673 4.41675V3.33341H10.8334V4.41675C10.8335 4.59521 10.8908 4.76894 10.9971 4.91236C11.1033 5.05577 11.2527 5.1613 11.4234 5.21341C12.1663 5.44442 12.8461 5.84333 13.4101 6.37925C13.5402 6.50319 13.707 6.58168 13.8854 6.60301C14.0638 6.62434 14.2444 6.58736 14.4001 6.49758L15.3534 5.94675L16.1867 7.38758L15.2501 7.92841C15.0934 8.01893 14.9704 8.15798 14.8998 8.32456C14.8291 8.49114 14.8146 8.67619 14.8584 8.85175C14.9517 9.22842 15.0001 9.61508 15.0001 10.0001C15.0001 10.3842 14.9517 10.7709 14.8576 11.1484C14.8138 11.3241 14.8285 11.5092 14.8993 11.6758C14.9701 11.8424 15.0932 11.9814 15.2501 12.0717L16.1859 12.6126L15.3542 14.0534L14.4001 13.5026C14.2445 13.4124 14.0639 13.3752 13.8853 13.3965C13.7068 13.4179 13.54 13.4966 13.4101 13.6209C12.8463 14.1571 12.1665 14.5561 11.4234 14.7867C11.2527 14.8389 11.1033 14.9444 10.9971 15.0878C10.8908 15.2312 10.8335 15.405 10.8334 15.5834L10.8351 16.6667H9.16673V15.5834C9.16666 15.405 9.10929 15.2312 9.00308 15.0878C8.89687 14.9444 8.74742 14.8389 8.57673 14.7867C7.83382 14.5557 7.15405 14.1568 6.59006 13.6209C6.46032 13.4963 6.29344 13.4173 6.11477 13.3961C5.9361 13.3749 5.75539 13.4126 5.60006 13.5034L4.64673 14.0551L3.8134 12.6142L4.75006 12.0717C4.90689 11.9814 5.03002 11.8424 5.10084 11.6758C5.17165 11.5092 5.1863 11.3241 5.14256 11.1484Z" fill="currentColor"/>
</svg>
