<svg width="28" height="28" viewBox="0 0 28 28" fill="none" xmlns="http://www.w3.org/2000/svg">
<path d="M22.1667 3.5H5.83333C4.5465 3.5 3.5 4.5465 3.5 5.83333V22.1667C3.5 23.4535 4.5465 24.5 5.83333 24.5H22.1667C23.4535 24.5 24.5 23.4535 24.5 22.1667V5.83333C24.5 4.5465 23.4535 3.5 22.1667 3.5ZM9.33333 20.4167C9.10344 20.4166 8.87582 20.3712 8.66346 20.2832C8.4511 20.1951 8.25816 20.0661 8.09565 19.9035C7.93315 19.7409 7.80427 19.5479 7.71637 19.3355C7.62846 19.123 7.58326 18.8954 7.58333 18.6655C7.58341 18.4356 7.62877 18.208 7.71681 17.9956C7.80486 17.7833 7.93387 17.5903 8.09648 17.4278C8.25909 17.2653 8.45212 17.1364 8.66454 17.0485C8.87696 16.9606 9.10461 16.9154 9.3345 16.9155C9.79878 16.9157 10.244 17.1002 10.5722 17.4286C10.9004 17.7571 11.0847 18.2024 11.0845 18.6667C11.0843 19.1309 10.8998 19.5762 10.5714 19.9043C10.2429 20.2325 9.79762 20.4168 9.33333 20.4167ZM9.33333 11.0833C8.86905 11.0832 8.42384 10.8986 8.09565 10.5702C7.76747 10.2418 7.58318 9.79645 7.58333 9.33217C7.58349 8.86788 7.76807 8.42268 8.09648 8.09449C8.42489 7.7663 8.87022 7.58201 9.3345 7.58217C9.56439 7.58224 9.79201 7.6276 10.0044 7.71564C10.2167 7.80369 10.4097 7.9327 10.5722 8.09531C10.7347 8.25792 10.8636 8.45095 10.9515 8.66337C11.0394 8.87579 11.0846 9.10344 11.0845 9.33333C11.0844 9.56322 11.0391 9.79085 10.951 10.0032C10.863 10.2156 10.734 10.4085 10.5714 10.571C10.4087 10.7335 10.2157 10.8624 10.0033 10.9503C9.79088 11.0382 9.56322 11.0834 9.33333 11.0833ZM14 15.75C13.5357 15.7498 13.0905 15.5653 12.7623 15.2369C12.4341 14.9084 12.2498 14.4631 12.25 13.9988C12.2502 13.5345 12.4347 13.0893 12.7631 12.7612C13.0916 12.433 13.5369 12.2487 14.0012 12.2488C14.4655 12.249 14.9107 12.4336 15.2388 12.762C15.567 13.0904 15.7513 13.5357 15.7512 14C15.751 14.4643 15.5664 14.9095 15.238 15.2377C14.9096 15.5659 14.4643 15.7502 14 15.75ZM18.6667 20.4167C18.4368 20.4166 18.2092 20.3712 17.9968 20.2832C17.7844 20.1951 17.5915 20.0661 17.429 19.9035C17.2665 19.7409 17.1376 19.5479 17.0497 19.3355C16.9618 19.123 16.9166 18.8954 16.9167 18.6655C16.9167 18.4356 16.9621 18.208 17.0501 17.9956C17.1382 17.7833 17.2672 17.5903 17.4298 17.4278C17.5924 17.2653 17.7854 17.1364 17.9979 17.0485C18.2103 16.9606 18.4379 16.9154 18.6678 16.9155C19.1321 16.9157 19.5773 17.1002 19.9055 17.4286C20.2337 17.7571 20.418 18.2024 20.4178 18.6667C20.4177 19.1309 20.2331 19.5762 19.9047 19.9043C19.5763 20.2325 19.1309 20.4168 18.6667 20.4167ZM18.6667 11.0833C18.4368 11.0833 18.2092 11.0379 17.9968 10.9499C17.7844 10.8618 17.5915 10.7328 17.429 10.5702C17.2665 10.4076 17.1376 10.2146 17.0497 10.0021C16.9618 9.78971 16.9166 9.56206 16.9167 9.33217C16.9167 9.10228 16.9621 8.87465 17.0501 8.66229C17.1382 8.44993 17.2672 8.25699 17.4298 8.09449C17.5924 7.93199 17.7854 7.8031 17.9979 7.7152C18.2103 7.62729 18.4379 7.58209 18.6678 7.58217C19.1321 7.58232 19.5773 7.76691 19.9055 8.09531C20.2337 8.42372 20.418 8.86905 20.4178 9.33333C20.4177 9.79762 20.2331 10.2428 19.9047 10.571C19.5763 10.8992 19.1309 11.0835 18.6667 11.0833Z" fill="currentColor"/>
</svg>
