<svg width="14" height="14" viewBox="0 0 14 14" fill="none" xmlns="http://www.w3.org/2000/svg">
<path d="M7 1.16669C5.06975 1.16669 3.5 2.73644 3.5 4.66669C3.5 6.39744 4.76408 7.83535 6.41667 8.11419V9.91669H4.66667V11.0834H6.41667V12.8264H7.58333V11.0834H9.33333V9.91669H7.58333V8.11419C9.23592 7.83477 10.5 6.39744 10.5 4.66669C10.5 2.73644 8.93025 1.16669 7 1.16669ZM7 7.00002C5.71317 7.00002 4.66667 5.95352 4.66667 4.66669C4.66667 3.37985 5.71317 2.33335 7 2.33335C8.28683 2.33335 9.33333 3.37985 9.33333 4.66669C9.33333 5.95352 8.28683 7.00002 7 7.00002Z" fill="#61758A"/>
</svg>
