<svg width="20" height="20" viewBox="0 0 20 20" fill="none" xmlns="http://www.w3.org/2000/svg">
<path d="M10.0001 1.66675C5.40508 1.66675 1.66675 5.40508 1.66675 10.0001C1.66675 14.5951 5.40508 18.3334 10.0001 18.3334C14.5951 18.3334 18.3334 14.5951 18.3334 10.0001C18.3334 5.40508 14.5951 1.66675 10.0001 1.66675ZM10.0001 16.6667C6.32425 16.6667 3.33341 13.6759 3.33341 10.0001C3.33341 6.32425 6.32425 3.33341 10.0001 3.33341C13.6759 3.33341 16.6667 6.32425 16.6667 10.0001C16.6667 13.6759 13.6759 16.6667 10.0001 16.6667Z" fill="currentColor"/>
<path d="M9.16675 9.16659H10.8334V14.1666H9.16675V9.16659ZM9.16675 5.83325H10.8334V7.49992H9.16675V5.83325Z" fill="currentColor"/>
</svg>
