<svg width="14" height="14" viewBox="0 0 14 14" fill="none" xmlns="http://www.w3.org/2000/svg">
<path d="M11.6666 6.41665V2.33331H7.58329L9.21254 3.96256L6.69138 6.48373C6.10095 6.06079 5.39291 5.83335 4.66663 5.83331C2.73638 5.83331 1.16663 7.40306 1.16663 9.33331C1.16663 11.2636 2.73638 12.8333 4.66663 12.8333C6.59688 12.8333 8.16663 11.2636 8.16663 9.33331C8.16663 8.57848 7.92396 7.88081 7.51621 7.30856L10.0374 4.7874L11.6666 6.41665ZM4.66663 11.6666C3.37979 11.6666 2.33329 10.6201 2.33329 9.33331C2.33329 8.04648 3.37979 6.99998 4.66663 6.99998C5.95346 6.99998 6.99996 8.04648 6.99996 9.33331C6.99996 10.6201 5.95346 11.6666 4.66663 11.6666Z" fill="#61758A"/>
</svg>
