<svg width="20" height="20" viewBox="0 0 20 20" fill="none" xmlns="http://www.w3.org/2000/svg">
<path d="M3.07578 5.24325C4.24495 3.97575 6.01412 3.33325 8.33328 3.33325H9.16662V5.68242L8.49662 5.81659C7.35495 6.04492 6.56078 6.49408 6.13578 7.15325C5.91403 7.50836 5.78826 7.91495 5.77078 8.33325H8.33328C8.5543 8.33325 8.76626 8.42105 8.92254 8.57733C9.07882 8.73361 9.16662 8.94557 9.16662 9.16658V14.9999C9.16662 15.9191 8.41912 16.6666 7.49995 16.6666H2.49995C2.27894 16.6666 2.06697 16.5788 1.91069 16.4225C1.75441 16.2662 1.66662 16.0543 1.66662 15.8333V11.6666L1.66912 9.23409C1.66162 9.14158 1.50328 6.94992 3.07578 5.24325ZM16.6666 16.6666H11.6666C11.4456 16.6666 11.2336 16.5788 11.0774 16.4225C10.9211 16.2662 10.8333 16.0543 10.8333 15.8333V11.6666L10.8358 9.23409C10.8283 9.14158 10.67 6.94992 12.2425 5.24325C13.4116 3.97575 15.1808 3.33325 17.5 3.33325H18.3333V5.68242L17.6633 5.81659C16.5216 6.04492 15.7275 6.49408 15.3025 7.15325C15.0807 7.50836 14.9549 7.91495 14.9374 8.33325H17.5C17.721 8.33325 17.9329 8.42105 18.0892 8.57733C18.2455 8.73361 18.3333 8.94557 18.3333 9.16658V14.9999C18.3333 15.9191 17.5858 16.6666 16.6666 16.6666Z" fill="currentColor"/>
</svg>
