<svg width="28" height="28" viewBox="0 0 28 28" fill="none" xmlns="http://www.w3.org/2000/svg">
<path d="M27.2627 10.2387C27.1789 9.99184 27.0246 9.77494 26.8189 9.61476C26.6133 9.45459 26.3652 9.35815 26.1053 9.33735L18.504 8.73335L15.2147 1.45202C15.1099 1.2175 14.9395 1.01831 14.7241 0.878496C14.5086 0.738677 14.2573 0.664204 14.0004 0.664063C13.7436 0.663922 13.4922 0.73812 13.2766 0.877702C13.0609 1.01728 12.8903 1.21628 12.7853 1.45069L9.49599 8.73335L1.89466 9.33735C1.63927 9.35758 1.39511 9.45097 1.1914 9.60633C0.98769 9.76169 0.833052 9.97245 0.745985 10.2134C0.658919 10.4543 0.643111 10.7153 0.700454 10.965C0.757797 11.2146 0.885862 11.4425 1.06933 11.6214L6.68666 17.0974L4.7 25.7C4.63967 25.9604 4.659 26.2329 4.75549 26.4822C4.85197 26.7315 5.02115 26.946 5.24106 27.0979C5.46098 27.2499 5.72149 27.3322 5.98877 27.3342C6.25606 27.3363 6.51779 27.2579 6.73999 27.1094L14 22.2694L21.26 27.1094C21.4871 27.2601 21.755 27.3378 22.0275 27.3318C22.3001 27.3258 22.5642 27.2365 22.7845 27.0759C23.0048 26.9153 23.1706 26.6911 23.2597 26.4334C23.3487 26.1758 23.3568 25.897 23.2827 25.6347L20.844 17.1014L26.892 11.6587C27.288 11.3014 27.4333 10.744 27.2627 10.2387Z" fill="currentColor"/>
</svg>
