<svg width="14" height="14" viewBox="0 0 14 14" fill="none" xmlns="http://www.w3.org/2000/svg">
<path d="M3.34394 8.54868L2.3506 12.85C2.31984 12.9803 2.32908 13.1168 2.3771 13.2417C2.42512 13.3666 2.5097 13.4741 2.61978 13.5502C2.72987 13.6263 2.86034 13.6675 2.99417 13.6683C3.128 13.669 3.25895 13.6295 3.36994 13.5547L6.99994 11.1347L10.6299 13.5547C10.7435 13.6301 10.8774 13.6689 11.0137 13.6659C11.15 13.6629 11.2821 13.6183 11.3922 13.538C11.5023 13.4577 11.5853 13.3456 11.6298 13.2167C11.6743 13.0879 11.6783 12.9485 11.6413 12.8173L10.4219 8.55068L13.4459 5.82935C13.5428 5.74214 13.612 5.62845 13.6449 5.50235C13.6778 5.37625 13.6731 5.24327 13.6312 5.11984C13.5893 4.99641 13.5122 4.88796 13.4094 4.80789C13.3066 4.72783 13.1825 4.67966 13.0526 4.66934L9.25194 4.36668L7.60727 0.726012C7.55483 0.608782 7.46958 0.509235 7.36181 0.439385C7.25404 0.369535 7.12836 0.332367 6.99994 0.332367C6.87151 0.332367 6.74583 0.369535 6.63806 0.439385C6.53029 0.509235 6.44504 0.608782 6.3926 0.726012L4.74794 4.36668L0.947269 4.66868C0.819573 4.67879 0.697495 4.72549 0.595639 4.80317C0.493784 4.88085 0.416465 4.98623 0.372932 5.1067C0.329398 5.22717 0.321495 5.35763 0.350166 5.48248C0.378838 5.60733 0.44287 5.72127 0.534603 5.81068L3.34394 8.54868ZM5.24594 5.66468C5.36493 5.6553 5.47922 5.61409 5.5768 5.54535C5.67439 5.47662 5.75169 5.3829 5.8006 5.27401L6.99994 2.62001L8.19927 5.27401C8.24818 5.3829 8.32548 5.47662 8.42307 5.54535C8.52066 5.61409 8.63494 5.6553 8.75394 5.66468L11.4019 5.87468L9.22127 7.83735C9.03194 8.00801 8.9566 8.27068 9.02594 8.51601L9.86127 11.4393L7.3706 9.77868C7.26128 9.7053 7.1326 9.66612 7.00094 9.66612C6.86927 9.66612 6.74059 9.7053 6.63127 9.77868L4.0286 11.514L4.7286 8.48335C4.75427 8.37188 4.75082 8.25569 4.7186 8.14594C4.68638 8.03619 4.62646 7.93657 4.5446 7.85668L2.51927 5.88201L5.24594 5.66468Z" fill="#E1E8F0"/>
</svg>
