<svg width="28" height="28" viewBox="0 0 28 28" fill="none" xmlns="http://www.w3.org/2000/svg">
<path d="M13.9999 4.66675C7.56692 4.66675 2.33326 9.90041 2.33326 16.3334C2.33174 18.134 2.75166 19.91 3.55942 21.5192C3.75776 21.9159 4.16142 22.1667 4.60359 22.1667H23.3951C23.8373 22.1667 24.2421 21.9159 24.4404 21.5192C25.2482 19.91 25.6681 18.134 25.6666 16.3334C25.6666 9.90041 20.4329 4.66675 13.9999 4.66675ZM19.8589 10.5257L15.2366 17.5701C15.108 17.7665 14.9419 17.9356 14.7479 18.0677C14.5539 18.1998 14.3357 18.2924 14.1058 18.34C13.876 18.3877 13.639 18.3896 13.4084 18.3456C13.1778 18.3015 12.9582 18.2124 12.7621 18.0834C12.5139 17.9211 12.3101 17.6995 12.169 17.4387C12.0279 17.1779 11.954 16.886 11.954 16.5895C11.954 16.293 12.0279 16.0011 12.169 15.7403C12.3101 15.4794 12.5139 15.2579 12.7621 15.0956L19.8064 10.4732C19.815 10.468 19.8252 10.4662 19.835 10.4684C19.8449 10.4706 19.8534 10.4765 19.8589 10.4849C19.8626 10.4911 19.8646 10.4981 19.8646 10.5053C19.8646 10.5125 19.8626 10.5196 19.8589 10.5257Z" fill="currentColor"/>
</svg>
