<svg width="54" height="220" viewBox="0 0 54 220" fill="none" xmlns="http://www.w3.org/2000/svg">
<path d="M48 74.0001L48.4439 74.2302L48 74.0001ZM2.49971 61.4999L2.97475 61.6559L2.49971 61.4999ZM52.5 98L52.0018 97.9581L52.5 98ZM25.5342 219.091C25.5846 219.363 25.8455 219.542 26.117 219.492L30.5414 218.67C30.8129 218.62 30.9921 218.359 30.9417 218.087C30.8913 217.816 30.6303 217.636 30.3588 217.687L26.426 218.417L25.6957 214.484C25.6453 214.213 25.3843 214.034 25.1128 214.084C24.8413 214.134 24.6621 214.395 24.7125 214.667L25.5342 219.091ZM26.4379 219.283C27.0065 218.455 27.5659 217.57 28.1163 216.632L27.2537 216.126C26.7141 217.046 26.1673 217.911 25.6136 218.717L26.4379 219.283ZM31.0057 211.052C31.839 209.248 32.6505 207.317 33.4402 205.271L32.5073 204.911C31.7242 206.939 30.921 208.85 30.0979 210.632L31.0057 211.052ZM35.5521 199.38C36.1915 197.466 36.8154 195.475 37.4239 193.416L36.4649 193.132C35.8594 195.182 35.2389 197.161 34.6036 199.063L35.5521 199.38ZM39.109 187.392C39.6319 185.42 40.1424 183.398 40.6403 181.33L39.6681 181.095C39.1718 183.157 38.6633 185.172 38.1424 187.136L39.109 187.392ZM42.0405 175.248C42.4823 173.242 42.9132 171.201 43.3333 169.129L42.3532 168.93C41.9342 170.997 41.5044 173.033 41.0639 175.033L42.0405 175.248ZM44.5265 163.007C44.9062 160.981 45.2761 158.93 45.6362 156.858L44.651 156.687C44.2916 158.755 43.9225 160.801 43.5436 162.823L44.5265 163.007ZM46.6676 150.703C46.9973 148.662 47.3178 146.605 47.629 144.535L46.6401 144.386C46.3294 146.453 46.0095 148.507 45.6804 150.544L46.6676 150.703ZM48.5258 138.355C48.8133 136.302 49.0918 134.24 49.3615 132.171L48.3699 132.042C48.1006 134.107 47.8225 136.167 47.5355 138.217L48.5258 138.355ZM50.1405 125.978C50.3908 123.913 50.6323 121.846 50.8651 119.778L49.8713 119.666C49.6389 121.731 49.3977 123.796 49.1477 125.857L50.1405 125.978ZM51.5375 113.573C51.7536 111.499 51.9608 109.428 52.159 107.364L51.1636 107.268C50.9656 109.33 50.7587 111.398 50.5429 113.469L51.5375 113.573ZM52.7311 101.147C52.8225 100.109 52.9115 99.0742 52.9983 98.0419L52.0018 97.9581C51.9151 98.9891 51.8262 100.023 51.735 101.059L52.7311 101.147ZM52.9983 98.0419C53.0849 97.0116 53.1562 95.9976 53.2128 94.9999L52.2144 94.9433C52.1583 95.9318 52.0876 96.9367 52.0018 97.9581L52.9983 98.0419ZM53.3779 88.993C53.3713 86.9159 53.2958 84.9182 53.1562 82.9987L52.1588 83.0712C52.2967 84.9667 52.3714 86.9412 52.3779 88.9961L53.3779 88.993ZM52.4766 76.9926C52.1519 74.9156 51.7445 72.9464 51.2626 71.083L50.2945 71.3334C50.7678 73.1637 51.1687 75.1008 51.4886 77.1471L52.4766 76.9926ZM49.4179 65.3276C48.6512 63.3566 47.7891 61.536 46.8461 59.8625L45.9749 60.3535C46.8936 61.9838 47.7356 63.7612 48.4859 65.6902L49.4179 65.3276ZM43.4405 54.8457C42.0953 53.1982 40.6542 51.7637 39.1436 50.5357L38.5128 51.3117C39.969 52.4954 41.3623 53.8815 42.6659 55.4782L43.4405 54.8457ZM34.0071 47.2568C32.1195 46.3464 30.1794 45.7052 28.2291 45.3223L28.0364 46.3035C29.9024 46.6699 31.7613 47.2839 33.5728 48.1575L34.0071 47.2568ZM22.1317 44.9563C20.0853 45.1109 18.0787 45.5449 16.1632 46.2447L16.5063 47.184C18.3355 46.5158 20.2519 46.1011 22.2071 45.9534L22.1317 44.9563ZM10.7679 49.1081C9.14538 50.2789 7.65558 51.6832 6.34402 53.308L7.12216 53.9361C8.37795 52.3803 9.80288 51.0376 11.353 49.9191L10.7679 49.1081ZM3.13957 58.4991C2.7223 59.4064 2.34934 60.3551 2.02466 61.3439L2.97475 61.6559C3.28776 60.7026 3.64689 59.7893 4.0481 58.9169L3.13957 58.4991ZM2.02466 61.3439C1.70059 62.3308 1.44479 63.3014 1.25368 64.2541L2.23415 64.4508C2.41717 63.5384 2.66266 62.6063 2.97475 61.6559L2.02466 61.3439ZM0.891924 70.2477C1.07303 72.3291 1.5815 74.2816 2.36259 76.0833L3.28008 75.6855C2.54132 73.9815 2.05983 72.1339 1.88816 70.161L0.891924 70.2477ZM5.59223 81.1561C6.90395 82.6531 8.43842 83.9673 10.1354 85.0777L10.6829 84.2409C9.05706 83.177 7.59257 81.9216 6.34436 80.4971L5.59223 81.1561ZM15.5086 87.726C17.3716 88.3862 19.3313 88.8446 21.3376 89.0828L21.4555 88.0897C19.5224 87.8603 17.6352 87.4187 15.8426 86.7834L15.5086 87.726ZM27.3218 89.1307C29.2861 88.9281 31.249 88.5063 33.1663 87.8484L32.8417 86.9026C30.9986 87.535 29.1103 87.9409 27.2192 88.136L27.3218 89.1307ZM38.5647 85.259C40.2035 84.2219 41.7662 82.9733 43.2189 81.5009L42.507 80.7986C41.108 82.2167 39.6047 83.4175 38.03 84.414L38.5647 85.259ZM46.9472 76.82C47.4736 76.0006 47.9734 75.1377 48.4439 74.2302L47.5561 73.7699C47.0996 74.6504 46.6153 75.4866 46.1059 76.2795L46.9472 76.82ZM48.4439 74.2302C48.8792 73.3907 49.2606 72.4832 49.5908 71.5162L48.6445 71.1931C48.3284 72.1186 47.9659 72.9797 47.5561 73.7699L48.4439 74.2302ZM50.8867 65.8002C51.1335 63.968 51.264 62.016 51.2858 59.9743L50.2859 59.9636C50.2644 61.9702 50.1363 63.8807 49.8957 65.6667L50.8867 65.8002ZM51.0791 54.1671C50.9323 52.2866 50.7099 50.3577 50.4165 48.3991L49.4275 48.5472C49.7177 50.4841 49.9373 52.3895 50.0821 54.2449L51.0791 54.1671ZM49.3784 42.6893C48.9793 40.8161 48.5216 38.9319 48.0087 37.0519L47.044 37.3151C47.552 39.1772 48.0053 41.0431 48.4003 42.8976L49.3784 42.6893ZM46.3282 31.4998C45.7152 29.6594 45.0514 27.8376 44.3402 26.0494L43.411 26.4189C44.115 28.1891 44.7723 29.993 45.3795 31.8158L46.3282 31.4998ZM42.0321 20.7241C41.193 18.9445 40.3059 17.2175 39.3746 15.56L38.5028 16.0498C39.4217 17.6853 40.298 19.3911 41.1276 21.1506L42.0321 20.7241ZM36.3181 10.6162C35.1874 8.95942 34.0064 7.4088 32.7801 5.98818L32.0231 6.64161C33.222 8.03047 34.3802 9.55064 35.4921 11.1799L36.3181 10.6162ZM28.6388 1.85656C27.8749 1.21296 27.0969 0.621089 26.3059 0.0858863L25.7456 0.914114C26.5053 1.42815 27.2553 1.99854 27.9945 2.62132L28.6388 1.85656Z" fill="#91A4B7"/>
</svg>
