<svg width="80" height="80" viewBox="0 0 80 80" fill="none" xmlns="http://www.w3.org/2000/svg">
<g clip-path="url(#clip0_117:15809)">
<path d="M30.5646 80C29.7363 80 28.9096 79.674 28.293 79.027C27.098 77.7728 27.146 75.7873 28.4002 74.5921C31.7002 71.4478 31.7002 67.6071 31.7002 64.8029C31.7002 63.0706 33.1046 61.6662 34.8369 61.6662C36.5693 61.6662 37.9736 63.0706 37.9736 64.8029C37.9736 68.0645 37.9736 74.1354 32.7277 79.1342C32.1207 79.7128 31.3419 80 30.5646 80Z" fill="#030913"/>
<path d="M64.2392 62.2184C64.8248 61.6328 65.6399 61.2787 66.5334 61.3002C68.2652 61.3421 69.6353 62.7799 69.5935 64.5119C69.4835 69.0688 72.1992 71.7845 74.1821 73.7674C75.407 74.9923 75.407 76.9784 74.1821 78.2034C72.9571 79.4283 70.9709 79.4284 69.746 78.2035C67.4397 75.8972 63.1469 71.6044 63.3217 64.3603C63.342 63.5217 63.6895 62.7681 64.2392 62.2184Z" fill="#030913"/>
<path d="M15.1821 53.7913C10.4213 53.7913 5.83315 52.0077 2.32253 48.7921L1.30972 47.8644C0.798779 47.3965 0.798779 46.5913 1.30972 46.1233L2.32253 45.1957C5.83315 41.9801 10.4213 40.1965 15.1821 40.1965V53.7913Z" fill="#030913"/>
<path opacity="0.1" d="M15.1821 40.1965C12.5174 40.1965 9.9069 40.7557 7.50909 41.8116C7.1569 43.4902 6.97144 45.2243 6.97144 46.994C6.97144 48.7637 7.1569 50.4977 7.50909 52.1763C9.9069 53.2323 12.5174 53.7915 15.1821 53.7915V40.1965Z" fill="#030913"/>
<path d="M43.5103 26.9827H53.1575C60.6086 26.9827 66.6488 20.9423 66.6488 13.4914C66.6488 6.04031 60.6086 0 53.1575 0C45.7064 0 39.6663 6.04031 39.6663 13.4913V23.1384C39.6661 25.2616 41.3872 26.9827 43.5103 26.9827Z" fill="#C9F4FF"/>
<path d="M44.1158 3.47925C41.3836 5.94815 39.6663 9.51894 39.6663 13.4913V23.1385C39.6663 25.2614 41.3874 26.9825 43.5103 26.9825H53.1575C56.0538 26.9825 58.7344 26.0669 60.9325 24.5136C45.9063 24.4616 44.2489 9.84503 44.1158 3.47925Z" fill="#AEEAF9"/>
<path d="M59.5546 71.5394C49.6335 73.8327 39.3199 73.8327 29.3988 71.5394C17.9724 68.8982 9.87976 58.7218 9.87976 46.9939C9.87976 35.2663 17.9723 25.0897 29.3988 22.4485C39.3199 20.1552 49.6335 20.1552 59.5546 22.4485C70.981 25.0897 79.0737 35.2661 79.0737 46.9939C79.0737 58.7218 70.981 68.8982 59.5546 71.5394Z" fill="#FBDD56"/>
<path d="M48.7671 20.8679C42.8296 20.4866 36.8541 20.8973 30.9994 22.1005C26.9338 38.4354 26.9338 55.5526 30.9994 71.8874C36.8543 73.0907 42.8297 73.5013 48.7671 73.1201C43.3671 56.1398 43.3671 37.8482 48.7671 20.8679Z" fill="#304254"/>
<path opacity="0.1" d="M22.1015 25.3953C14.6782 29.8543 9.87976 37.9639 9.87976 46.9939C9.87976 58.7215 17.9723 68.8981 29.3988 71.5393C39.3199 73.8326 49.6335 73.8326 59.5546 71.5393C59.9076 71.4578 60.2573 71.3689 60.6037 71.2731C28.1085 72.3989 21.0451 42.4245 22.1015 25.3953Z" fill="black"/>
<path d="M35.822 26.9827H26.1748C18.7238 26.9827 12.6836 20.9423 12.6836 13.4914C12.6836 6.04031 18.7238 0 26.1748 0C33.6259 0 39.6661 6.04031 39.6661 13.4913V23.1384C39.6661 25.2616 37.9452 26.9827 35.822 26.9827Z" fill="#C9F4FF"/>
<path d="M54.1375 50.4972C56.1283 50.4972 57.7422 49.2119 57.7422 47.6265C57.7422 46.0411 56.1283 44.7559 54.1375 44.7559C52.1467 44.7559 50.5328 46.0411 50.5328 47.6265C50.5328 49.2119 52.1467 50.4972 54.1375 50.4972Z" fill="#FFA6BB"/>
<path d="M73.6766 50.4972C75.6674 50.4972 77.2813 49.2119 77.2813 47.6265C77.2813 46.0411 75.6674 44.7559 73.6766 44.7559C71.6858 44.7559 70.0719 46.0411 70.0719 47.6265C70.0719 49.2119 71.6858 50.4972 73.6766 50.4972Z" fill="#FFA6BB"/>
<path d="M56.2388 45.9351C55.5914 45.9351 55.0669 45.4104 55.0669 44.7633V43.4903C55.0669 42.8431 55.5914 42.3184 56.2388 42.3184C56.8861 42.3184 57.4106 42.8431 57.4106 43.4903V44.7633C57.4106 45.4104 56.886 45.9351 56.2388 45.9351Z" fill="#414B58"/>
<path d="M71.5762 45.9351C70.9288 45.9351 70.4043 45.4104 70.4043 44.7633V43.4903C70.4043 42.8431 70.9288 42.3184 71.5762 42.3184C72.2235 42.3184 72.748 42.8431 72.748 43.4903V44.7633C72.748 45.4104 72.2234 45.9351 71.5762 45.9351Z" fill="#414B58"/>
<path d="M63.9073 46.6478C65.0209 46.6478 66.0796 47.1299 66.8126 47.9707C67.2379 48.4585 67.187 49.1988 66.699 49.6242C66.2112 50.0493 65.4711 49.9987 65.0456 49.5106C64.7581 49.1806 64.3432 48.9913 63.9073 48.9913C63.4714 48.9913 63.0565 49.1806 62.7692 49.5104C62.3437 49.9985 61.6037 50.0493 61.1157 49.6242C60.6278 49.199 60.5768 48.4587 61.0018 47.9707C61.7346 47.1301 62.7936 46.6478 63.9073 46.6478Z" fill="#414B58"/>
<path d="M46.5043 79.9999C45.676 79.9999 44.8493 79.674 44.2327 79.0269C43.0377 77.7727 43.0857 75.7872 44.3399 74.5921C47.6399 71.4477 47.6399 67.6071 47.6399 64.8029C47.6399 63.0705 49.0443 61.6661 50.7766 61.6661C52.509 61.6661 53.9135 63.0705 53.9135 64.8029C53.9135 68.0644 53.9135 74.1354 48.6674 79.1341C48.0604 79.7127 47.2816 79.9999 46.5043 79.9999Z" fill="#030913"/>
<path d="M17.333 79.9999C16.5047 79.9999 15.678 79.674 15.0615 79.0269C13.8665 77.7727 13.9144 75.7872 15.1687 74.5921C18.4687 71.4477 18.4687 67.6071 18.4687 64.8029C18.4687 63.0705 19.873 61.6661 21.6054 61.6661C23.3377 61.6661 24.7421 63.0705 24.7421 64.8029C24.7421 68.0644 24.7421 74.1354 19.496 79.1341C18.8891 79.7127 18.1102 79.9999 17.333 79.9999Z" fill="#030913"/>
<path d="M21.5305 0.82074C16.3675 2.71371 12.6835 7.67215 12.6835 13.4912C12.6835 20.9423 18.7238 26.9825 26.1747 26.9825H34.6232C21.0982 25.4531 19.1324 6.89886 21.5305 0.82074Z" fill="#AEEAF9"/>
</g>
<defs>
<clipPath id="clip0_117:15809">
<rect width="80" height="80" fill="white"/>
</clipPath>
</defs>
</svg>
