<svg width="60" height="60" viewBox="0 0 60 60" fill="none" xmlns="http://www.w3.org/2000/svg">
<g clip-path="url(#clip0_117:6011)">
<path d="M23.2115 54.5187C22.8581 54.8581 22.4175 55.1164 21.9116 55.2547L17.265 56.5253C15.5103 57.0053 13.6509 56.5022 12.4126 55.2126L9.98237 52.6814C8.74405 51.3917 8.31702 49.5134 8.86791 47.7795L10.3712 42.8393L4.35819 44.3936C2.74135 44.8358 1.07213 43.8835 0.629984 42.2666C0.187835 40.6498 1.1401 38.9807 2.75694 38.5384L7.40354 37.2678C9.15842 36.7879 11.0178 37.291 12.256 38.5805L14.6863 41.1117C15.9246 42.4013 16.3516 44.2796 15.8008 46.0135L14.062 50.9997L20.3105 49.3996C21.9273 48.9575 23.5965 49.9097 24.0387 51.5266C24.3425 52.6375 23.9878 53.7734 23.2115 54.5187Z" fill="#41A7B3"/>
<path d="M10.3712 42.8396L10.2129 43.3599L8.86778 47.7798C8.39434 49.2701 8.64383 50.8667 9.50938 52.1049C10.8823 51.7909 12.7084 51.3933 14.062 50.9998L14.2849 50.3607L15.8008 46.0136C16.2966 44.4527 15.9996 42.7749 15.032 41.5148C13.6481 41.926 11.7608 42.4499 10.3712 42.8396Z" fill="#0C6D78"/>
<path d="M43.0815 55.2024C43.5361 55.3854 44.0413 55.4605 44.5622 55.4L49.3473 54.8444C51.1544 54.6347 52.6916 53.474 53.359 51.8152L54.6688 48.5599C55.3362 46.9011 55.0313 44.9992 53.873 43.5963L50.6343 39.5743L56.7927 38.7717C58.4578 38.5783 59.6508 37.0719 59.4576 35.4068C59.2642 33.7418 57.7578 32.5488 56.0926 32.7419L51.3075 33.2975C49.5003 33.5074 47.9631 34.6681 47.2958 36.3267L45.986 39.582C45.3187 41.2407 45.6236 43.1426 46.7819 44.5455L50.2562 48.5223L43.8621 49.3702C42.1971 49.5636 41.004 51.07 41.1973 52.7352C41.3302 53.8794 42.0832 54.8007 43.0815 55.2024Z" fill="#521168"/>
<path d="M50.6344 39.5742L50.9754 39.9979L53.8731 43.5962C54.8686 44.802 55.2332 46.3764 54.8923 47.8482C53.5013 48.0695 51.6588 48.3821 50.2562 48.5224L49.8109 48.0127L46.7819 44.5455C45.7391 43.2825 45.3885 41.6152 45.8158 40.0849C47.2532 39.9499 49.1996 39.7314 50.6344 39.5742Z" fill="black"/>
<path d="M29.5582 40.5539C30.0012 40.3446 30.3996 40.0249 30.7091 39.6015L33.5521 35.7126C34.6258 34.2442 34.8184 32.3276 34.0546 30.711L32.5556 27.5383C31.7918 25.9217 30.1889 24.8535 28.3725 24.7503L23.221 24.3947L26.8158 19.3302C27.8051 17.977 27.51 16.0781 26.157 15.0888C24.8038 14.0995 22.9049 14.3946 21.9155 15.7476L19.0725 19.6365C17.9988 21.1052 17.8063 23.0218 18.57 24.6382L20.069 27.8108C20.8328 29.4273 22.4356 30.4956 24.2519 30.5988L29.5303 30.7509L25.8088 36.019C24.8195 37.3721 25.1146 39.271 26.4676 40.2603C27.3976 40.9402 28.5853 41.0136 29.5582 40.5539Z" fill="#D3560E"/>
<path d="M22.9347 24.8237L23.221 24.3947L28.3726 24.7503C29.9338 24.8389 31.3366 25.6411 32.1852 26.891C31.4893 27.9323 30.7534 28.946 30.0011 29.9484C29.8143 30.1973 29.656 30.4663 29.5304 30.7509L24.2519 30.5988C22.6167 30.5059 21.1549 29.6305 20.3223 28.2774C21.1998 27.131 22.0754 25.9834 22.9347 24.8237Z" fill="#9D3B02"/>
<path d="M7.95076 31.358L5.40603 30.0855C4.64689 29.706 4.33916 28.7828 4.71873 28.0235L5.99115 25.4788C6.37072 24.7196 7.29392 24.4119 8.05306 24.7915L10.5978 26.0639C11.3569 26.4435 11.6647 27.3667 11.2851 28.1259L10.0127 30.6707C9.6331 31.4298 8.71001 31.7375 7.95076 31.358Z" fill="#FFE266"/>
<path d="M29.2714 54.2491L32.0071 53.4676C32.8233 53.2344 33.6739 53.707 33.9071 54.5232L34.6886 57.259C34.9218 58.0752 34.4492 58.9257 33.633 59.1589L30.8972 59.9404C30.081 60.1736 29.2305 59.701 28.9973 58.8848L28.2157 56.1491C27.9826 55.3329 28.4553 54.4823 29.2714 54.2491Z" fill="#41A7B3"/>
<path d="M48.7812 25.7008L45.1889 27.7747C44.1172 28.3935 42.7468 28.0263 42.1282 26.9547L40.0542 23.3624C39.4355 22.2907 39.8027 20.9203 40.8743 20.3017L44.4666 18.2277C45.5382 17.609 46.9085 17.9761 47.5273 19.0478L49.6012 22.6399C50.22 23.7117 49.8529 25.082 48.7812 25.7008Z" fill="#D3560E"/>
<path d="M10.6423 5.78694L11.6321 8.57049C11.6746 8.68967 11.7585 8.78412 11.8643 8.83182L14.3373 9.94604C14.6866 10.1034 14.6866 10.6602 14.3373 10.8176L11.8643 11.9318C11.7585 11.9795 11.6745 12.0739 11.6321 12.1931L10.6423 14.9765C10.5025 15.3698 10.0078 15.3698 9.86801 14.9765L8.87801 12.193C8.83559 12.0738 8.75168 11.9794 8.64586 11.9317L6.17273 10.8176C5.82328 10.6602 5.82328 10.1035 6.17273 9.94604L8.64574 8.83182C8.75168 8.78412 8.83559 8.68967 8.87789 8.57049L9.86789 5.78694C10.0078 5.39377 10.5023 5.39377 10.6423 5.78694Z" fill="#CAB4EF"/>
<path d="M47.5995 0.21876L48.3338 2.28349C48.3652 2.37185 48.4274 2.44192 48.5061 2.47731L50.3405 3.30384C50.5997 3.42067 50.5997 3.83353 50.3405 3.95036L48.5061 4.77688C48.4276 4.81228 48.3653 4.88235 48.3338 4.97071L47.5995 7.03544C47.4958 7.32712 47.1289 7.32712 47.0252 7.03544L46.2909 4.97071C46.2595 4.88235 46.1973 4.81228 46.1186 4.77688L44.2842 3.95036C44.0251 3.83353 44.0251 3.42067 44.2842 3.30384L46.1186 2.47731C46.1971 2.44192 46.2594 2.37185 46.2909 2.28349L47.0252 0.21876C47.1289 -0.0729199 47.4957 -0.0729199 47.5995 0.21876Z" fill="#FFC7B6"/>
<path d="M37.5143 12.9292C38.6174 12.472 39.1409 11.2071 38.6837 10.1041C38.2265 9.00104 36.9616 8.47749 35.8586 8.93471C34.7555 9.39193 34.232 10.6568 34.6892 11.7598C35.1464 12.8629 36.4113 13.3864 37.5143 12.9292Z" fill="#41A7B3"/>
<path d="M17.1751 5.492C17.6901 5.492 18.1076 5.07452 18.1076 4.55954C18.1076 4.04455 17.6901 3.62708 17.1751 3.62708C16.6602 3.62708 16.2427 4.04455 16.2427 4.55954C16.2427 5.07452 16.6602 5.492 17.1751 5.492Z" fill="#EF8BBD"/>
<path d="M55.6439 19.7424C56.1589 19.7424 56.5763 19.3249 56.5763 18.8099C56.5763 18.2949 56.1589 17.8774 55.6439 17.8774C55.1289 17.8774 54.7114 18.2949 54.7114 18.8099C54.7114 19.3249 55.1289 19.7424 55.6439 19.7424Z" fill="#FFE266"/>
</g>
<defs>
<clipPath id="clip0_117:6011">
<rect width="60" height="60" fill="white"/>
</clipPath>
</defs>
</svg>
